<?xml version="1.0" encoding="utf-8"?>
<!-- Generator: Adobe Illustrator 25.0.1, SVG Export Plug-In . SVG Version: 6.00 Build 0)  -->
<svg version="1.1" id="Layer_1" xmlns="http://www.w3.org/2000/svg" xmlns:xlink="http://www.w3.org/1999/xlink" x="0px" y="0px"
	 viewBox="0 0 85 85" style="enable-background:new 0 0 85 85;" xml:space="preserve">
<style type="text/css">
	.st0{fill-rule:evenodd;clip-rule:evenodd;fill:#1AB479;}
	.st1{fill-rule:evenodd;clip-rule:evenodd;fill:#17B479;}
	.st2{fill:#FFFFFF;}
</style>
<g>
	<circle class="st0" cx="42.5" cy="42.5" r="42.5"/>
	<g>
		<path class="st2" d="M23.78,43.84v10.7h6.98l7.65,6.69h12.62l1.21-1.2v-3.34H40.42l-5.17-5.15L37,49.79l4.03,4.01l2.22-0.74
			l1.68-1.67l-7.32-7.29C37.6,44.11,23.37,43.84,23.78,43.84z"/>
		<path class="st2" d="M61.22,41.16v-10.7h-6.98l-7.65-6.69H33.97l-1.21,1.2v3.34h11.81l5.17,5.15L48,35.21l-4.03-4.01l-2.22,0.74
			l-1.68,1.67l7.32,7.29C47.4,40.89,61.63,41.16,61.22,41.16z"/>
		<polygon class="st2" points="33.71,40.76 38.81,35.41 47.67,43.7 51.16,43.7 45.79,48.79 36.26,40.76 		"/>
	</g>
</g>
</svg>
