<?xml version="1.0" encoding="utf-8"?>
<!-- Generator: Adobe Illustrator 25.0.1, SVG Export Plug-In . SVG Version: 6.00 Build 0)  -->
<svg version="1.1" id="Layer_1" xmlns="http://www.w3.org/2000/svg" xmlns:xlink="http://www.w3.org/1999/xlink" x="0px" y="0px"
	 viewBox="0 0 135.49 129.89" style="enable-background:new 0 0 135.49 129.89;" xml:space="preserve">
<style type="text/css">
	.st0{fill:#008F63;}
</style>
<g>
	<g>
		<g>
			<g>
				<rect x="12.07" y="58.47" class="st0" width="42.56" height="7.71"/>
			</g>
		</g>
		<g>
			<g>
				<path class="st0" d="M99.25,80.12c-8.22,0-14.91,6.69-14.91,14.91s6.69,14.91,14.91,14.91c8.22,0,14.91-6.69,14.91-14.91
					C114.16,86.81,107.47,80.12,99.25,80.12z M99.25,102.23c-3.97,0-7.2-3.23-7.2-7.2s3.23-7.2,7.2-7.2s7.2,3.23,7.2,7.2
					C106.45,99,103.22,102.23,99.25,102.23z"/>
			</g>
		</g>
		<g>
			<g>
				<path class="st0" d="M22.87,39.1c-1.44,0-2.77,0.81-3.43,2.09L8.65,62.15c-0.28,0.55-0.43,1.15-0.43,1.77v31.11
					c0,2.13,1.73,3.86,3.86,3.86h9.39v-7.71h-5.53V64.85l9.29-18.04h29.41V39.1H22.87z"/>
			</g>
		</g>
		<g>
			<g>
				<rect x="44.09" y="91.17" class="st0" width="43.97" height="7.71"/>
			</g>
		</g>
		<g>
			<g>
				<path class="st0" d="M123.42,19.94H54.63c-2.13,0-3.86,1.73-3.86,3.86v71.23h7.71V27.66h61.07v63.51h-9.26v7.71h13.11
					c2.13,0,3.86-1.73,3.86-3.86V23.8C127.28,21.67,125.55,19.94,123.42,19.94z"/>
			</g>
		</g>
		<g>
			<g>
				<path class="st0" d="M107.91,43.48c-1.42-1.59-3.85-1.74-5.45-0.32L83.35,60.15l-7.59-7.68c-1.5-1.52-3.94-1.53-5.45-0.03
					c-1.52,1.5-1.53,3.94-0.03,5.46l10.16,10.29c0.75,0.76,1.75,1.15,2.75,1.15c0.91,0,1.83-0.32,2.56-0.97l21.86-19.42
					C109.19,47.51,109.33,45.08,107.91,43.48z"/>
			</g>
		</g>
		<g>
			<g>
				<path class="st0" d="M32.65,80.12c-8.22,0-14.91,6.69-14.91,14.91s6.69,14.91,14.91,14.91s14.91-6.69,14.91-14.91
					S40.87,80.12,32.65,80.12z M32.65,102.23c-3.97,0-7.2-3.23-7.2-7.2s3.23-7.2,7.2-7.2s7.2,3.23,7.2,7.2
					S36.62,102.23,32.65,102.23z"/>
			</g>
		</g>
	</g>
</g>
</svg>
