<?xml version="1.0" encoding="utf-8"?>
<!-- Generator: Adobe Illustrator 25.0.1, SVG Export Plug-In . SVG Version: 6.00 Build 0)  -->
<svg version="1.1" id="Layer_1" xmlns="http://www.w3.org/2000/svg" xmlns:xlink="http://www.w3.org/1999/xlink" x="0px" y="0px"
	 viewBox="0 0 32.71 34.18" style="enable-background:new 0 0 32.71 34.18;" xml:space="preserve">
<style type="text/css">
	.st0{fill:#FFFFFF;}
	.st1{fill:#009062;}
</style>
<g>
	<g>
		<path class="st0" d="M30.97,17.09c0-8.08-6.55-14.62-14.62-14.62c-8.08,0-14.62,6.55-14.62,14.62c0,7.3,5.35,13.35,12.34,14.44
			V21.32h-3.71v-4.23h3.71v-3.22c0-3.66,2.18-5.69,5.52-5.69c1.6,0,3.27,0.29,3.27,0.29v3.6h-1.84c-1.82,0-2.38,1.13-2.38,2.28v2.74
			h4.06l-0.65,4.23h-3.41v10.22C25.63,30.44,30.97,24.39,30.97,17.09z"/>
		<path class="st1" d="M22.04,21.32l0.65-4.23h-4.06v-2.74c0-1.16,0.57-2.28,2.38-2.28h1.84v-3.6c0,0-1.67-0.29-3.27-0.29
			c-3.34,0-5.52,2.02-5.52,5.69v3.22h-3.71v4.23h3.71v10.22c0.74,0.12,1.51,0.18,2.28,0.18c0.78,0,1.54-0.06,2.28-0.18V21.32H22.04z
			"/>
	</g>
</g>
</svg>
