<?xml version="1.0" encoding="utf-8"?>
<!-- Generator: Adobe Illustrator 25.0.1, SVG Export Plug-In . SVG Version: 6.00 Build 0)  -->
<svg version="1.1" id="Layer_1" xmlns="http://www.w3.org/2000/svg" xmlns:xlink="http://www.w3.org/1999/xlink" x="0px" y="0px"
	 viewBox="0 0 70.51 70.51" style="enable-background:new 0 0 70.51 70.51;" xml:space="preserve">
<style type="text/css">
	.st0{fill-rule:evenodd;clip-rule:evenodd;fill:#FFFFFF;}
	.st1{fill:#FFFFFF;}
	.st2{fill:#009062;}
	.st3{fill-rule:evenodd;clip-rule:evenodd;fill:#009062;}
	.st4{fill:#A5F9DB;}
</style>
<g>
	<polygon class="st0" points="17.87,43.19 17.87,61.67 17.84,61.99 17.72,62.27 17.53,62.49 17.27,62.68 16.93,62.81 16.61,62.84 
		7.83,62.84 7.45,62.81 7.17,62.68 6.91,62.49 6.69,62.24 6.57,61.99 6.54,61.67 6.54,51.16 7.45,51.06 8.36,50.84 9.18,50.56 
		10.03,50.15 10.79,49.65 11.51,49.08 	"/>
	<polygon class="st0" points="21.65,43.19 27.29,48.73 27.89,49.27 28.52,49.68 29.21,50.09 29.93,50.37 30.66,50.59 31.41,50.75 
		32.23,50.81 32.23,61.71 32.2,61.99 32.07,62.27 31.89,62.49 31.63,62.68 31.35,62.81 31.04,62.84 22.85,62.84 22.53,62.81 
		22.25,62.68 22,62.49 21.81,62.24 21.68,61.99 21.65,61.71 	"/>
	<polygon class="st0" points="46.59,39.41 46.59,61.67 46.56,61.99 46.43,62.27 46.24,62.49 45.99,62.68 45.71,62.81 45.43,62.84 
		37.21,62.84 36.89,62.81 36.61,62.68 36.36,62.49 36.2,62.24 36.04,61.99 36.01,61.67 36.01,49.61 36.64,49.17 37.21,48.67 	"/>
	<polygon class="st0" points="60.92,25.81 61.26,26.15 61.45,26.34 61.71,26.56 61.71,61.71 61.67,61.99 61.55,62.27 61.36,62.49 
		61.11,62.68 60.82,62.81 60.51,62.84 52.32,62.84 52.01,62.81 51.69,62.68 51.47,62.49 51.28,62.24 51.16,61.99 51.13,61.71 
		51.13,35.41 	"/>
	<polygon class="st0" points="65.96,7.67 66.18,7.67 66.71,7.7 67.18,7.83 67.59,8.02 67.94,8.3 68.22,8.65 68.38,9.09 68.48,9.56 
		68.51,10.13 68.32,13.84 67.97,21.34 67.94,21.68 67.88,22.09 67.75,22.47 67.53,22.88 67.22,23.23 66.96,23.45 66.68,23.64 
		66.33,23.79 66.02,23.89 65.7,23.92 65.36,23.86 65.01,23.76 64.76,23.64 64.51,23.45 64.32,23.26 64.1,23.07 61.14,20.14 
		34.69,46.28 34.25,46.62 33.81,46.87 33.3,47.09 32.8,47.22 32.29,47.25 31.73,47.22 31.22,47.09 30.75,46.87 30.31,46.62 
		29.9,46.28 19.35,35.85 8.33,46.75 7.95,47.09 7.48,47.38 7.01,47.57 6.51,47.69 5.97,47.72 5.43,47.69 4.93,47.57 4.46,47.38 
		4.02,47.09 3.61,46.75 2.98,46.15 2.57,45.65 2.29,45.17 2.1,44.64 2,44.07 2,43.5 2.1,42.97 2.29,42.43 2.57,41.9 2.98,41.46 
		17.02,27.6 17.4,27.26 17.84,26.97 18.34,26.78 18.85,26.66 19.35,26.63 19.89,26.66 20.42,26.78 20.9,26.97 21.34,27.26 
		21.75,27.6 32.29,37.99 55.72,14.82 53.68,12.8 52.73,11.83 52.57,11.7 52.45,11.51 52.29,11.32 52.13,11.1 52.01,10.82 
		51.91,10.54 51.91,10.19 51.98,9.81 52.13,9.43 52.29,9.09 52.54,8.8 52.83,8.55 53.14,8.39 53.46,8.3 53.74,8.24 54.34,8.21 
		60.13,7.92 	"/>
</g>
</svg>
