<?xml version="1.0" encoding="utf-8"?>
<!-- Generator: Adobe Illustrator 25.0.1, SVG Export Plug-In . SVG Version: 6.00 Build 0)  -->
<svg version="1.1" id="Layer_1" xmlns="http://www.w3.org/2000/svg" xmlns:xlink="http://www.w3.org/1999/xlink" x="0px" y="0px"
	 viewBox="0 0 28.4 29.68" style="enable-background:new 0 0 28.4 29.68;" xml:space="preserve">
<style type="text/css">
	.st0{fill-rule:evenodd;clip-rule:evenodd;fill:#FFFFFF;}
	.st1{fill:#FFFFFF;}
	.st2{fill:#009062;}
	.st3{fill-rule:evenodd;clip-rule:evenodd;fill:#009062;}
	.st4{fill:#A5F9DB;}
</style>
<g>
	<path class="st2" d="M17.02,14.53c0.31-0.13,0.58-0.22,0.83-0.36c0.41-0.23,0.69-0.17,0.93,0.26c0.22,0.41,0.5,0.79,0.76,1.18
		c0.81,1.25,1.73,1.26,2.6,0.04c0.18-0.26,0.4-0.51,0.54-0.79c0.31-0.59,0.66-0.72,1.32-0.44c0.72,0.3,0.57,0.74,0.44,1.26
		c-0.1,0.39-0.17,0.8-0.24,1.2c-0.23,1.17,0.51,1.91,1.68,1.71c0.23-0.04,0.46-0.1,0.69-0.14c1.38-0.25,1.38-0.25,1.85,1.23
		c-0.65,0.43-1.32,0.87-1.99,1.33c-0.7,0.48-0.71,1.61-0.02,2.11c0.31,0.22,0.62,0.43,0.94,0.65c0.29,0.2,0.57,0.4,0.84,0.59
		c-0.28,1.48-0.35,1.53-1.71,1.25c-0.34-0.07-0.69-0.14-1.03-0.21c-1.03-0.21-1.82,0.57-1.63,1.61c0.12,0.66,0.23,1.32,0.36,2.06
		c-0.44,0.2-0.88,0.39-1.41,0.62c-0.46-0.7-0.9-1.37-1.35-2.04c-0.47-0.69-1.63-0.71-2.11-0.04c-0.44,0.61-0.87,1.23-1.29,1.83
		c-1.48-0.45-1.48-0.45-1.19-1.84c0.07-0.34,0.14-0.68,0.21-1.03c0.18-0.9-0.63-1.72-1.54-1.56c-0.71,0.12-1.43,0.24-2.12,0.35
		c-0.75-1.35-0.75-1.35,0.44-2.12c0.29-0.19,0.59-0.38,0.88-0.58c0.81-0.54,0.82-1.64,0.03-2.2c-0.59-0.42-1.18-0.83-1.81-1.28
		c0.21-0.47,0.39-0.89,0.61-1.39c0.81,0.16,1.6,0.33,2.39,0.47c0.82,0.15,1.63-0.65,1.5-1.47C17.27,16.04,17.15,15.3,17.02,14.53z
		 M22.85,21.8c0-1.25-1.03-2.29-2.26-2.28c-1.24,0.01-2.29,1.05-2.29,2.28c0,1.24,1.03,2.27,2.28,2.27
		C21.83,24.07,22.85,23.06,22.85,21.8z"/>
	<path class="st2" d="M11.45,5.38c-0.1,0.67-0.18,1.3-0.28,1.93c-0.24,1.42,0.51,2.12,1.91,1.78C13.39,9.01,13.7,8.94,14,8.85
		c0.54-0.16,0.94-0.2,1.25,0.48c0.29,0.64,0.12,0.95-0.4,1.26c-0.37,0.23-0.71,0.51-1.06,0.77c-0.98,0.72-0.93,1.75,0.11,2.4
		c0.57,0.35,1.13,0.71,1.7,1.07c-0.05,0.16-0.09,0.27-0.11,0.38c-0.13,0.92-0.62,1.22-1.51,0.93c-0.3-0.1-0.63-0.12-0.95-0.17
		c-1.32-0.19-2.01,0.56-1.7,1.84c0.15,0.62,0.28,1.24,0.43,1.91c-0.46,0.22-0.88,0.41-1.38,0.65c-0.39-0.53-0.79-1.05-1.18-1.58
		c-0.88-1.2-1.87-1.15-2.65,0.14c-0.15,0.25-0.33,0.49-0.45,0.75c-0.27,0.59-0.58,0.79-1.28,0.53c-0.72-0.26-0.65-0.68-0.54-1.22
		c0.07-0.37,0.12-0.75,0.18-1.12c0.23-1.3-0.54-2.01-1.83-1.71c-0.34,0.08-0.69,0.13-1.02,0.24c-0.55,0.17-0.93,0.22-1.25-0.46
		c-0.33-0.71-0.05-0.99,0.47-1.31c0.35-0.21,0.66-0.48,0.99-0.72c0.98-0.72,0.93-1.75-0.11-2.4C1.17,11.16,0.63,10.82,0,10.43
		c0.17-0.48,0.35-0.96,0.53-1.46C1.37,9.1,2.14,9.23,2.91,9.33C3.79,9.44,4.55,8.57,4.35,7.7C4.19,7,4.02,6.3,3.84,5.55
		c0.47-0.23,0.89-0.42,1.4-0.67C5.73,5.54,6.2,6.19,6.68,6.84c0.5,0.66,1.66,0.62,2.1-0.07C8.96,6.5,9.12,6.23,9.29,5.95
		C10.04,4.74,10.04,4.74,11.45,5.38z M7.8,10.35c-1.25,0-2.27,1.03-2.26,2.28c0.01,1.25,1.03,2.28,2.28,2.27
		c1.23-0.01,2.29-1.07,2.28-2.29C10.09,11.38,9.04,10.35,7.8,10.35z"/>
	<path class="st2" d="M16.29,12.56c-0.35-0.34-0.64-0.61-0.98-0.94c0.34-0.52,0.64-0.97,0.94-1.43c0.76-1.13,0.46-1.89-0.85-2.17
		c-0.48-0.1-0.97-0.21-1.5-0.33c0-0.43,0-0.85,0-1.36c0.54-0.12,1.1-0.24,1.66-0.36c1.2-0.25,1.53-1.04,0.85-2.06
		c-0.3-0.46-0.6-0.92-0.96-1.47c0.35-0.28,0.66-0.53,1.07-0.86c0.49,0.32,1.07,0.69,1.65,1.06c0.71,0.45,1.6,0.07,1.78-0.76
		c0.06-0.28,0.12-0.57,0.18-0.86c0.25-1.14,0.25-1.14,1.57-0.97c0.12,0.54,0.25,1.1,0.37,1.66c0.25,1.2,1.04,1.55,2.05,0.89
		c0.46-0.3,0.92-0.6,1.42-0.93c0.34,0.34,0.65,0.64,0.97,0.96c-0.36,0.55-0.67,1.03-0.99,1.52c-0.66,1.01-0.32,1.8,0.87,2.04
		c0.51,0.1,1.03,0.22,1.53,0.32c0.33,1.28,0.28,1.36-0.9,1.59c-0.37,0.07-0.75,0.14-1.11,0.24c-0.72,0.2-1.05,1.12-0.64,1.76
		c0.33,0.51,0.67,1.02,1.09,1.66c-0.37,0.22-0.74,0.45-1.24,0.75c-0.27-0.18-0.78-0.5-1.28-0.83c-0.97-0.64-1.79-0.33-2.03,0.79
		c-0.07,0.31-0.16,0.63-0.18,0.94c-0.05,0.55-0.26,0.79-0.87,0.79C20.18,14.23,20,14,19.95,13.48c-0.04-0.38-0.14-0.74-0.22-1.12
		c-0.21-1.02-1.06-1.37-1.91-0.81C17.34,11.87,16.85,12.19,16.29,12.56z M20.95,5.12c-1.07-0.03-2.01,0.89-2.03,1.97
		c-0.02,1.1,0.86,2.01,1.95,2.04c1.07,0.02,2.02-0.89,2.04-1.96C22.93,6.1,22.02,5.15,20.95,5.12z"/>
</g>
</svg>
