<?xml version="1.0" encoding="utf-8"?>
<!-- Generator: Adobe Illustrator 25.0.1, SVG Export Plug-In . SVG Version: 6.00 Build 0)  -->
<svg version="1.1" id="Layer_1" xmlns="http://www.w3.org/2000/svg" xmlns:xlink="http://www.w3.org/1999/xlink" x="0px" y="0px"
	 viewBox="0 0 70.51 70.51" style="enable-background:new 0 0 70.51 70.51;" xml:space="preserve">
<style type="text/css">
	.st0{fill-rule:evenodd;clip-rule:evenodd;fill:#FFFFFF;}
	.st1{fill:#FFFFFF;}
	.st2{fill:#009062;}
	.st3{fill-rule:evenodd;clip-rule:evenodd;fill:#009062;}
	.st4{fill:#A5F9DB;}
</style>
<g>
	<path class="st0" d="M35,7.67l0.04,0.02l0.06,0.09l0.17,0.11l0.19,0.17l0.24,0.24l0.28,0.26l0.71,0.69l0.41,0.43l0.41,0.49
		l0.45,0.54l0.45,0.58l0.49,0.67l0.49,0.71l0.52,0.75l0.49,0.84l0.52,0.9l0.47,0.95l0.52,0.99l0.49,1.07l0.45,1.14l0.45,1.2
		l0.43,1.27l0.39,1.33l0.37,1.4l0.34,1.46l0.26,1.53l0.26,1.61l0.19,1.65l0.17,1.76l0.06,1.83l0.04,1.89l-0.04,1.89l-0.06,1.85
		l-0.17,1.74l-0.17,1.7l-0.28,1.61l-0.3,1.53l-0.32,1.46l-0.39,1.35l-0.43,1.27l-0.49,1.2l-0.52,1.1l-0.54,1.03l-0.6,0.92l-0.6,0.84
		l-0.67,0.73l-0.67,0.67l-0.71,0.56l-0.73,0.43l-0.75,0.37l-0.75,0.26V45.63l-0.06-0.37l-0.13-0.32l-0.17-0.3l-0.26-0.26l-0.3-0.15
		l-0.37-0.13L35,44.04l-0.37,0.06l-0.34,0.13l-0.3,0.15l-0.24,0.26l-0.19,0.3l-0.13,0.32l-0.04,0.37v13.08l-0.77-0.26l-0.75-0.37
		l-0.73-0.43l-0.71-0.56l-0.67-0.67l-0.67-0.73l-0.6-0.84l-0.6-0.92l-0.54-1.03l-0.52-1.1l-0.47-1.2l-0.43-1.27l-0.41-1.35
		l-0.32-1.46l-0.3-1.53l-0.28-1.61l-0.17-1.7l-0.15-1.74l-0.09-1.85l-0.04-1.89l0.04-1.89l0.09-1.78l0.15-1.74l0.19-1.65l0.26-1.61
		l0.28-1.5l0.34-1.46l0.34-1.4l0.39-1.33l0.43-1.25l0.45-1.2l0.47-1.12l0.47-1.1l0.99-1.98l0.52-0.88l0.52-0.82l0.49-0.77l0.49-0.73
		l0.49-0.67l0.45-0.58l0.47-0.56l0.41-0.47l0.41-0.45l0.34-0.39l0.32-0.32l0.3-0.28l0.24-0.21l0.19-0.17l0.15-0.13l0.11-0.09
		L35,7.67z M35.04,12.57l-0.54,0.6l-0.54,0.73l-0.54,0.79l-0.58,0.88l-0.58,0.99l-0.54,1.07l-0.58,1.16l-0.56,1.25l-0.49,1.37
		l-0.52,1.44l1.22,0.19l1.33,0.15l1.35,0.09l1.37,0.02h1.16l1.16-0.06l1.14-0.11l1.05-0.13l1.03-0.21l-0.47-1.44l-0.52-1.33
		l-0.54-1.25l-0.56-1.18l-0.6-1.07l-0.54-0.95l-0.58-0.9l-0.56-0.79l-0.54-0.71L35.04,12.57z"/>
	<polygon class="st0" points="21.61,45.31 22.88,45.31 23.16,46.77 23.48,48.17 23.85,49.52 24.23,50.79 24.68,52.01 25.16,53.15 
		25.67,54.25 26.23,55.26 15.92,62.84 15.92,50.14 15.96,49.48 16.13,48.83 16.37,48.25 16.69,47.69 17.1,47.2 17.6,46.71 
		18.13,46.3 18.73,45.95 19.4,45.67 20.09,45.48 20.84,45.35 	"/>
	<polygon class="st0" points="47.29,45.31 48.62,45.31 49.43,45.35 50.21,45.48 50.96,45.67 51.65,45.95 52.27,46.3 52.85,46.71 
		53.34,47.2 53.77,47.69 54.12,48.25 54.37,48.83 54.55,49.48 54.59,50.14 54.59,62.84 43.76,55.26 44.34,54.25 44.9,53.15 
		45.39,52.01 45.85,50.79 46.28,49.52 46.64,48.17 46.98,46.77 	"/>
</g>
</svg>
