<?xml version="1.0" encoding="utf-8"?>
<!-- Generator: Adobe Illustrator 25.0.1, SVG Export Plug-In . SVG Version: 6.00 Build 0)  -->
<svg version="1.1" id="Layer_1" xmlns="http://www.w3.org/2000/svg" xmlns:xlink="http://www.w3.org/1999/xlink" x="0px" y="0px"
	 viewBox="0 0 28.4 29.68" style="enable-background:new 0 0 28.4 29.68;" xml:space="preserve">
<style type="text/css">
	.st0{fill-rule:evenodd;clip-rule:evenodd;fill:#FFFFFF;}
	.st1{fill:#FFFFFF;}
	.st2{fill:#009062;}
	.st3{fill-rule:evenodd;clip-rule:evenodd;fill:#009062;}
	.st4{fill:#A5F9DB;}
</style>
<g>
	<path class="st2" d="M26.77,11.95v-0.3h-5.93l-0.03,0.27c-0.37,3.44-1.31,6.1-2.59,8.18c-1.92,3.11-4.6,4.9-7.32,5.93
		c-2.71,1.02-5.46,1.27-7.44,1.27c-1.08,0-1.93-0.07-2.44-0.13L1,27.46l-0.01,0.3c0.03,0,0.06,0,0.09,0c0.36,0,0.75-0.07,1.15-0.19
		c0.7-0.21,1.46-0.57,2.21-0.98c2.24-1.25,4.4-3.05,4.41-3.06L8.65,23.3L8.4,23.14l-0.54,0.83h0.55c0.09,0,0.18-0.01,0.27-0.05
		c0.13-0.05,0.24-0.13,0.32-0.23c0.08-0.1,0.15-0.21,0.2-0.33l0,0c0.06-0.14,0.17-0.29,0.29-0.47l0,0c0.12-0.2,0.25-0.34,0.36-0.42
		c0.11-0.08,0.2-0.11,0.29-0.11c0.08,0,0.17,0.02,0.28,0.1c0.11,0.07,0.23,0.19,0.36,0.36l0,0c0.26,0.36,0.53,0.71,0.8,1.06
		l0.15,0.2l0.22-0.1c0.34-0.16,0.62-0.29,0.93-0.43l0.22-0.1l-0.05-0.23c-0.1-0.45-0.19-0.86-0.29-1.29
		c-0.03-0.12-0.04-0.22-0.04-0.31c0-0.1,0.02-0.19,0.04-0.26c0.04-0.1,0.1-0.17,0.19-0.22c0.09-0.05,0.22-0.09,0.4-0.09
		c0.07,0,0.14,0.01,0.22,0.02l0,0c0.23,0.03,0.43,0.05,0.59,0.1l0,0c0.17,0.05,0.32,0.08,0.48,0.08c0.12,0,0.24-0.02,0.35-0.07
		c0.17-0.07,0.31-0.2,0.4-0.35c0.09-0.16,0.14-0.33,0.17-0.54l0,0c0-0.01,0.01-0.03,0.02-0.07c0.01-0.04,0.03-0.08,0.05-0.15
		l0.06-0.22l-0.19-0.12c-0.38-0.24-0.76-0.48-1.14-0.71c-0.15-0.09-0.25-0.2-0.32-0.29c-0.06-0.1-0.09-0.19-0.09-0.27
		c0-0.08,0.02-0.17,0.08-0.26c0.05-0.09,0.14-0.19,0.27-0.29c0.24-0.18,0.47-0.36,0.69-0.5l0,0c0.13-0.08,0.25-0.17,0.35-0.29
		c0.05-0.06,0.09-0.13,0.12-0.21c0.03-0.08,0.04-0.16,0.04-0.24c0-0.16-0.05-0.32-0.12-0.48c-0.04-0.09-0.11-0.18-0.2-0.23
		c-0.09-0.05-0.18-0.07-0.27-0.07c-0.09,0-0.18,0.02-0.26,0.04c-0.14,0.05-0.29,0.11-0.43,0.19c-0.21,0.12-0.43,0.26-0.61,0.37
		c-0.09,0.06-0.17,0.11-0.24,0.15c-0.07,0.04-0.12,0.06-0.13,0.06l0,0c-0.06,0.02-0.12,0.06-0.15,0.1
		c-0.05,0.06-0.06,0.11-0.07,0.15c-0.01,0.04-0.01,0.06-0.01,0.09c0,0.04,0,0.08,0.01,0.11c0.01,0.05,0.02,0.1,0.02,0.14
		c0,0.02,0.01,0.04,0.01,0.05l0,0.02l0,0l0,0h0.18l-0.17-0.06c-0.01,0.04-0.01,0.05-0.01,0.06h0.18l-0.17-0.06l0.25,0.08l-0.2-0.17
		c-0.03,0.04-0.04,0.07-0.05,0.09l0.25,0.08l-0.2-0.17l0.21,0.18l-0.07-0.27c-0.06,0.01-0.11,0.05-0.14,0.09l0.21,0.18l-0.07-0.27
		l0.08,0.29l0.22,0.2l0.84-0.95l1.33-4.92l-5.33-0.44l7.85-8.63l8.34,9.46L26.77,11.95v-0.3V11.95l0.22-0.2l-8.79-9.96L9.09,11.82
		l5.83,0.48l-1.11,4.09l-1.4,1.59l0.95-0.25c0.06-0.02,0.12-0.06,0.16-0.1c0.05-0.06,0.07-0.12,0.07-0.15
		c0.01-0.04,0.01-0.07,0.01-0.09c0-0.04,0-0.08-0.01-0.11c-0.01-0.05-0.02-0.1-0.02-0.14c0-0.02-0.01-0.04-0.01-0.05l0-0.02l0,0
		h-0.18l0.17,0.05c0.01-0.04,0.01-0.05,0.01-0.05h-0.18l0.17,0.05l-0.25-0.08l0.2,0.17c0.03-0.04,0.04-0.07,0.05-0.09l-0.25-0.08
		l0.2,0.17l-0.22-0.18l0.08,0.27c0.06-0.02,0.11-0.05,0.13-0.09l-0.22-0.18l0.08,0.27l0,0c0.07-0.02,0.13-0.05,0.19-0.08
		c0.11-0.06,0.23-0.13,0.35-0.21c0.19-0.12,0.39-0.25,0.58-0.35c0.09-0.05,0.18-0.09,0.24-0.11c0.07-0.03,0.12-0.03,0.13-0.03l0,0
		l0.01-0.09l-0.05,0.07c0.02,0.01,0.04,0.02,0.04,0.02l0.01-0.09l-0.05,0.07l0.06-0.09l-0.1,0.04c0,0.01,0.02,0.03,0.04,0.04
		l0.06-0.09l-0.1,0.04c0.05,0.12,0.07,0.2,0.07,0.24c0,0.02,0,0.03-0.01,0.04c-0.01,0.02-0.02,0.04-0.05,0.07
		c-0.03,0.03-0.09,0.07-0.16,0.12l0,0c-0.28,0.17-0.51,0.36-0.74,0.53c-0.18,0.14-0.33,0.29-0.43,0.47
		c-0.1,0.17-0.16,0.37-0.16,0.56c0,0.21,0.07,0.42,0.19,0.6c0.12,0.18,0.29,0.34,0.5,0.47c0.38,0.23,0.76,0.47,1.14,0.71l0.16-0.25
		l-0.29-0.08c-0.01,0.05-0.03,0.09-0.04,0.13c-0.01,0.05-0.03,0.1-0.04,0.16l0,0c-0.03,0.2-0.08,0.31-0.13,0.36
		c-0.02,0.03-0.05,0.04-0.07,0.05c-0.03,0.01-0.07,0.02-0.12,0.02c-0.07,0-0.17-0.02-0.29-0.06l0,0c-0.25-0.08-0.49-0.09-0.68-0.12
		l0,0c-0.1-0.02-0.21-0.02-0.3-0.02c-0.17,0-0.34,0.02-0.49,0.08c-0.23,0.08-0.42,0.22-0.55,0.42c-0.13,0.19-0.19,0.43-0.19,0.68
		c0,0.14,0.02,0.3,0.06,0.45c0.1,0.41,0.19,0.83,0.29,1.27l0.29-0.07L12.61,23c-0.31,0.14-0.59,0.28-0.93,0.43l0.13,0.27l0.24-0.18
		c-0.27-0.36-0.53-0.71-0.79-1.06l0,0c-0.16-0.21-0.33-0.39-0.51-0.51c-0.19-0.12-0.39-0.19-0.61-0.19c-0.23,0-0.45,0.08-0.64,0.23
		c-0.19,0.14-0.36,0.34-0.51,0.59l0,0c-0.09,0.15-0.22,0.32-0.32,0.53l0,0c-0.06,0.12-0.11,0.19-0.14,0.22
		c-0.02,0.01-0.03,0.02-0.04,0.03c-0.01,0-0.03,0.01-0.06,0.01v0.3l0.25,0.16l1.32-2.03l-1.53,1.27l-0.01,0.01
		c-0.14,0.12-1.4,1.15-2.93,2.15c-0.76,0.5-1.59,0.99-2.38,1.35c-0.39,0.18-0.77,0.33-1.12,0.43c-0.35,0.1-0.67,0.16-0.95,0.16
		c-0.02,0-0.04,0-0.07,0l-0.04,0.6c0.52,0.06,1.4,0.13,2.51,0.13c2.71,0,6.8-0.44,10.43-2.66c1.81-1.11,3.51-2.66,4.84-4.82
		c1.33-2.16,2.3-4.92,2.67-8.43l-0.3-0.03v0.3h6.32L27,11.75L26.77,11.95z"/>
	<path class="st2" d="M12.52,13.65c-0.07,0.45-0.12,0.87-0.19,1.3c-0.16,0.95,0.34,1.43,1.28,1.19c0.21-0.05,0.42-0.1,0.62-0.16
		c0.36-0.11,0.63-0.14,0.84,0.32c0.19,0.43,0.08,0.64-0.27,0.85c-0.25,0.15-0.48,0.34-0.71,0.51c-0.66,0.48-0.62,1.17,0.08,1.61
		c0.38,0.24,0.76,0.47,1.14,0.71c-0.03,0.11-0.06,0.18-0.07,0.25c-0.09,0.61-0.42,0.82-1.01,0.63c-0.2-0.07-0.42-0.08-0.63-0.11
		c-0.88-0.13-1.35,0.38-1.14,1.23c0.1,0.41,0.19,0.83,0.29,1.28c-0.31,0.14-0.59,0.28-0.93,0.43c-0.26-0.35-0.53-0.7-0.79-1.06
		c-0.59-0.8-1.25-0.77-1.78,0.09c-0.1,0.17-0.22,0.33-0.3,0.5c-0.18,0.4-0.39,0.53-0.86,0.36c-0.48-0.18-0.43-0.46-0.36-0.82
		c0.05-0.25,0.08-0.5,0.12-0.75c0.15-0.87-0.36-1.35-1.22-1.15c-0.23,0.05-0.46,0.09-0.69,0.16c-0.37,0.12-0.63,0.15-0.84-0.31
		c-0.22-0.47-0.04-0.67,0.32-0.88c0.23-0.14,0.44-0.32,0.66-0.48c0.66-0.48,0.63-1.17-0.08-1.61c-0.36-0.23-0.73-0.45-1.15-0.71
		c0.12-0.32,0.23-0.64,0.35-0.98c0.56,0.08,1.08,0.17,1.6,0.24c0.59,0.07,1.1-0.51,0.96-1.09c-0.11-0.47-0.22-0.94-0.34-1.44
		c0.32-0.15,0.59-0.28,0.94-0.45c0.32,0.44,0.64,0.88,0.96,1.31c0.33,0.44,1.11,0.42,1.41-0.04c0.12-0.18,0.23-0.37,0.34-0.55
		C11.57,13.23,11.57,13.23,12.52,13.65z M10.07,16.99c-0.84,0-1.52,0.69-1.52,1.53c0,0.84,0.69,1.53,1.53,1.52
		c0.82,0,1.54-0.72,1.53-1.53C11.61,17.68,10.9,16.99,10.07,16.99z"/>
</g>
</svg>
