<?xml version="1.0" encoding="utf-8"?>
<!-- Generator: Adobe Illustrator 25.0.1, SVG Export Plug-In . SVG Version: 6.00 Build 0)  -->
<svg version="1.1" id="Layer_1" xmlns="http://www.w3.org/2000/svg" xmlns:xlink="http://www.w3.org/1999/xlink" x="0px" y="0px"
	 viewBox="0 0 70.51 70.51" style="enable-background:new 0 0 70.51 70.51;" xml:space="preserve">
<style type="text/css">
	.st0{fill-rule:evenodd;clip-rule:evenodd;fill:#FFFFFF;}
	.st1{fill:#FFFFFF;}
	.st2{fill:#009062;}
	.st3{fill-rule:evenodd;clip-rule:evenodd;fill:#009062;}
	.st4{fill:#A5F9DB;}
</style>
<g>
	<path class="st1" d="M7.77,37.28v16.19h10.25l11.23,10.12h18.52l1.77-1.82v-5.06H32.21l-7.59-7.79l2.56-2.63l5.91,6.07l3.25-1.11
		l2.46-2.53L28.07,37.68C28.07,37.68,7.18,37.28,7.77,37.28z"/>
	<path class="st1" d="M62.73,33.23V17.04H52.49L41.26,6.92H22.74l-1.77,1.82v5.06H38.3l7.59,7.79l-2.56,2.63l-5.91-6.07l-3.25,1.11
		l-2.46,2.53l10.74,11.03C42.44,32.83,63.33,33.23,62.73,33.23z"/>
	<polygon class="st1" points="22.36,32.62 29.84,24.53 42.85,37.08 47.97,37.08 40.09,44.77 26.1,32.62 	"/>
</g>
</svg>
