<?xml version="1.0" encoding="utf-8"?>
<!-- Generator: Adobe Illustrator 25.0.1, SVG Export Plug-In . SVG Version: 6.00 Build 0)  -->
<svg version="1.1" id="Layer_1" xmlns="http://www.w3.org/2000/svg" xmlns:xlink="http://www.w3.org/1999/xlink" x="0px" y="0px"
	 viewBox="0 0 28.4 29.68" style="enable-background:new 0 0 28.4 29.68;" xml:space="preserve">
<style type="text/css">
	.st0{fill-rule:evenodd;clip-rule:evenodd;fill:#FFFFFF;}
	.st1{fill:#FFFFFF;}
	.st2{fill:#009062;}
	.st3{fill-rule:evenodd;clip-rule:evenodd;fill:#009062;}
	.st4{fill:#A5F9DB;}
</style>
<g>
	<path class="st2" d="M22.83,14.84h-1.71c0,1.93-0.78,3.66-2.04,4.92c-1.26,1.26-2.99,2.04-4.92,2.04c-1.93,0-3.66-0.78-4.92-2.04
		C7.98,18.5,7.2,16.77,7.2,14.84c0-1.93,0.78-3.66,2.04-4.92c1.26-1.26,2.99-2.04,4.92-2.04c1.93,0,3.66,0.78,4.92,2.04
		c1.26,1.26,2.04,2.99,2.04,4.92H22.83h1.71c0-2.86-1.17-5.47-3.04-7.34c-1.87-1.88-4.48-3.04-7.34-3.04
		c-2.86,0-5.47,1.17-7.34,3.04c-1.88,1.87-3.04,4.48-3.04,7.34c0,2.86,1.17,5.47,3.04,7.34c1.87,1.88,4.48,3.04,7.34,3.04
		c2.86,0,5.47-1.17,7.34-3.04c1.88-1.87,3.04-4.48,3.04-7.34H22.83z"/>
	<circle class="st3" cx="14.16" cy="14.84" r="3.96"/>
	<rect x="13.34" y="0.61" class="st3" width="1.71" height="28.45"/>
	<rect x="-0.03" y="13.98" class="st3" width="28.45" height="1.71"/>
	
		<rect x="13.34" y="0.61" transform="matrix(0.5001 -0.866 0.866 0.5001 -5.7526 19.7169)" class="st3" width="1.71" height="28.45"/>
	
		<rect x="13.34" y="0.61" transform="matrix(0.8661 -0.4999 0.4999 0.8661 -5.5172 9.0863)" class="st3" width="1.71" height="28.45"/>
	<rect x="-0.03" y="13.98" transform="matrix(0.866 -0.5 0.5 0.866 -5.5177 9.0879)" class="st3" width="28.45" height="1.71"/>
	<rect x="-0.03" y="13.98" transform="matrix(0.5 -0.866 0.866 0.5 -5.7525 19.7172)" class="st3" width="28.45" height="1.71"/>
</g>
</svg>
