<?xml version="1.0" encoding="utf-8"?>
<!-- Generator: Adobe Illustrator 25.0.1, SVG Export Plug-In . SVG Version: 6.00 Build 0)  -->
<svg version="1.1" id="Layer_1" xmlns="http://www.w3.org/2000/svg" xmlns:xlink="http://www.w3.org/1999/xlink" x="0px" y="0px"
	 viewBox="0 0 28.4 29.68" style="enable-background:new 0 0 28.4 29.68;" xml:space="preserve">
<style type="text/css">
	.st0{fill-rule:evenodd;clip-rule:evenodd;fill:#FFFFFF;}
	.st1{fill:#FFFFFF;}
	.st2{fill:#009062;}
	.st3{fill-rule:evenodd;clip-rule:evenodd;fill:#009062;}
	.st4{fill:#A5F9DB;}
</style>
<g>
	<path class="st2" d="M14.1,4.54c0.41-0.16,0.41,0.23,0.52,0.42c1.91,3.31,3.85,6.6,5.68,9.94c1.31,2.39,1.22,4.86-0.26,7.14
		c-1.36,2.1-3.33,3.26-5.92,3.14c-0.27-0.28-0.32-0.64-0.33-1.01c-0.01-0.22-0.01-0.45-0.02-0.67c-0.1-5.78-0.02-11.56-0.04-17.33
		C13.74,5.6,13.89,5.06,14.1,4.54z"/>
	<path class="st2" d="M14.12,24.24c0,0.31,0,0.62,0,0.93c-4.98,0.11-8.49-5.19-6.26-9.76c1.83-3.75,4-7.34,6.24-10.87
		c0.01,6.41,0.02,12.82,0.02,19.23c-0.3,0.16-0.58,0.05-0.87-0.06c-2.65-1.84-4.06-5.14-3.65-8.57c-1.59,4.16-0.33,7.22,3.57,8.65
		C13.5,23.91,13.86,23.98,14.12,24.24z"/>
	<path class="st4" d="M13.41,23.53c0.13,0.26,0.17,0.49-0.24,0.48c-3.21-0.57-5.04-3.81-4.46-7.04c0.17-0.95,0.36-1.94,1.19-2.63
		C9.6,17.99,10.31,21.21,13.41,23.53z"/>
</g>
</svg>
