<?xml version="1.0" encoding="utf-8"?>
<!-- Generator: Adobe Illustrator 25.0.1, SVG Export Plug-In . SVG Version: 6.00 Build 0)  -->
<svg version="1.1" id="Layer_1" xmlns="http://www.w3.org/2000/svg" xmlns:xlink="http://www.w3.org/1999/xlink" x="0px" y="0px"
	 viewBox="0 0 70.51 70.51" style="enable-background:new 0 0 70.51 70.51;" xml:space="preserve">
<style type="text/css">
	.st0{fill-rule:evenodd;clip-rule:evenodd;fill:#FFFFFF;}
	.st1{fill:#FFFFFF;}
	.st2{fill:#009062;}
	.st3{fill-rule:evenodd;clip-rule:evenodd;fill:#009062;}
	.st4{fill:#A5F9DB;}
</style>
<g>
	<polygon class="st0" points="56.7,7.67 57.43,13.27 63.13,14 55.63,21.36 53.2,21.07 38.36,35.67 38.48,36.11 38.56,36.58 
		38.56,37.06 38.51,37.77 38.38,38.46 38.14,39.09 37.85,39.71 37.46,40.27 37.02,40.76 36.5,41.2 35.94,41.59 35.33,41.88 
		34.64,42.13 33.96,42.25 33.25,42.3 32.52,42.25 31.83,42.13 31.17,41.88 30.56,41.59 30,41.2 29.48,40.76 29.02,40.27 
		28.65,39.71 28.31,39.09 28.11,38.46 27.97,37.77 27.92,37.06 27.97,36.33 28.11,35.67 28.31,35.01 28.65,34.42 29.02,33.84 
		29.48,33.35 30,32.91 30.56,32.52 31.17,32.22 31.83,32 32.52,31.88 33.25,31.83 33.74,31.86 34.2,31.9 34.64,32 49.51,17.4 
		49.17,15.06 	"/>
	<polygon class="st0" points="34.03,22.34 35.16,22.42 36.28,22.56 37.38,22.81 38.48,23.13 34.06,27.38 33.22,27.38 32.37,27.43 
		31.51,27.55 30.71,27.75 29.87,27.99 29.09,28.33 28.31,28.7 27.55,29.17 26.87,29.7 26.18,30.27 25.52,31 24.93,31.73 
		24.42,32.52 24.01,33.35 23.69,34.2 23.42,35.08 23.25,35.96 23.17,36.87 23.17,37.75 23.25,38.65 23.42,39.56 23.69,40.44 
		24.01,41.27 24.42,42.1 24.93,42.88 25.52,43.64 26.18,44.35 26.94,44.99 27.7,45.57 28.51,46.04 29.39,46.43 30.27,46.77 
		31.17,47.02 32.1,47.16 33.03,47.24 33.96,47.24 34.89,47.16 35.82,47.02 36.72,46.77 37.6,46.43 38.46,46.04 39.29,45.57 
		40.05,44.99 40.81,44.35 41.42,43.69 41.96,43.03 42.44,42.3 42.84,41.56 43.15,40.78 43.45,40 43.64,39.22 43.76,38.38 
		43.81,37.55 43.79,36.75 48.22,32.47 48.56,33.54 48.8,34.62 48.97,35.69 49.05,36.8 49.02,37.87 48.97,38.97 48.8,40.05 
		48.53,41.12 48.19,42.2 47.8,43.23 47.29,44.23 46.72,45.23 46.06,46.14 45.31,47.04 44.5,47.9 43.59,48.68 42.66,49.41 
		41.69,50.05 40.66,50.61 39.61,51.08 38.53,51.49 37.43,51.81 36.33,52.05 35.21,52.2 34.06,52.28 32.93,52.28 31.78,52.2 
		30.66,52.05 29.56,51.81 28.46,51.49 27.38,51.08 26.33,50.61 25.3,50.05 24.32,49.41 23.37,48.68 22.49,47.9 21.66,47.04 
		20.92,46.14 20.26,45.21 19.68,44.23 19.19,43.23 18.8,42.18 18.45,41.12 18.19,40.05 18.01,38.95 17.94,37.85 17.94,36.77 
		18.01,35.67 18.19,34.59 18.45,33.49 18.8,32.44 19.19,31.42 19.68,30.39 20.26,29.43 20.92,28.48 21.66,27.58 22.49,26.72 
		23.37,25.94 24.32,25.2 25.3,24.57 26.3,24.01 27.36,23.54 28.41,23.13 29.51,22.81 30.63,22.59 31.76,22.42 32.91,22.34 	"/>
	<polygon class="st0" points="33.84,11.78 35.3,11.83 36.75,11.95 38.21,12.17 39.63,12.49 41.05,12.85 42.47,13.32 43.81,13.86 
		45.16,14.44 46.48,15.15 42.3,19.26 41.07,18.75 39.83,18.31 38.56,17.94 37.31,17.67 36.01,17.5 34.72,17.38 33.4,17.35 
		32.1,17.38 30.83,17.5 29.53,17.7 28.26,18.01 26.99,18.36 25.77,18.8 24.57,19.33 23.37,19.95 22.22,20.63 21.12,21.41 
		20.07,22.27 19.04,23.17 18.09,24.18 17.21,25.23 16.42,26.33 15.72,27.45 15.08,28.6 14.54,29.8 14.1,31 13.73,32.25 13.44,33.49 
		13.22,34.77 13.1,36.04 13.05,37.31 13.1,38.58 13.22,39.88 13.44,41.12 13.73,42.37 14.1,43.62 14.54,44.82 15.08,46.01 
		15.72,47.19 16.42,48.29 17.21,49.41 18.09,50.44 19.04,51.44 20.07,52.37 21.14,53.23 22.24,54.01 23.39,54.7 24.59,55.31 
		25.82,55.82 27.06,56.29 28.31,56.65 29.58,56.92 30.9,57.12 32.2,57.24 33.49,57.29 34.79,57.24 36.11,57.12 37.41,56.92 
		38.68,56.65 39.93,56.29 41.17,55.82 42.42,55.31 43.59,54.7 44.74,54.01 45.87,53.23 46.92,52.37 47.95,51.44 48.9,50.47 
		49.78,49.41 50.56,48.31 51.27,47.19 51.91,46.04 52.42,44.87 52.89,43.67 53.25,42.44 53.55,41.2 53.79,39.93 53.89,38.68 
		53.94,37.41 53.91,36.14 53.79,34.86 53.57,33.62 53.3,32.37 52.94,31.12 52.5,29.92 51.96,28.73 56.16,24.62 56.9,25.91 
		57.48,27.23 58.05,28.55 58.51,29.92 58.9,31.32 59.2,32.71 59.42,34.11 59.56,35.55 59.61,36.97 59.59,38.38 59.49,39.8 
		59.32,41.22 59.05,42.62 58.71,44.03 58.29,45.4 57.75,46.77 57.19,48.09 56.53,49.39 55.77,50.66 54.94,51.91 54.04,53.08 
		53.03,54.26 51.96,55.36 50.81,56.43 49.61,57.41 48.36,58.32 47.07,59.15 45.72,59.88 44.38,60.54 42.98,61.1 41.56,61.62 
		40.12,62.01 38.68,62.33 37.21,62.59 35.72,62.77 34.25,62.84 32.74,62.84 31.27,62.77 29.8,62.59 28.33,62.33 26.89,62.01 
		25.42,61.62 24.01,61.1 22.64,60.54 21.27,59.88 19.92,59.15 18.65,58.32 17.38,57.41 16.16,56.43 15.03,55.36 13.93,54.23 
		12.93,53.06 11.97,51.83 11.17,50.56 10.41,49.27 9.72,47.95 9.14,46.58 8.65,45.18 8.21,43.79 7.87,42.37 7.62,40.93 7.45,39.49 
		7.38,38.04 7.38,36.58 7.45,35.13 7.62,33.69 7.87,32.27 8.21,30.83 8.65,29.43 9.14,28.04 9.72,26.67 10.41,25.35 11.17,24.05 
		11.97,22.78 12.93,21.56 13.93,20.36 15.03,19.24 16.16,18.21 17.33,17.26 18.58,16.33 19.82,15.54 21.12,14.81 22.49,14.15 
		23.83,13.59 25.2,13.07 26.62,12.66 28.04,12.34 29.48,12.07 30.93,11.9 32.39,11.8 	"/>
</g>
</svg>
