<?xml version="1.0" encoding="utf-8"?>
<!-- Generator: Adobe Illustrator 25.0.1, SVG Export Plug-In . SVG Version: 6.00 Build 0)  -->
<svg version="1.1" id="Layer_1" xmlns="http://www.w3.org/2000/svg" xmlns:xlink="http://www.w3.org/1999/xlink" x="0px" y="0px"
	 viewBox="0 0 32.71 34.18" style="enable-background:new 0 0 32.71 34.18;" xml:space="preserve">
<style type="text/css">
	.st0{fill:#FFFFFF;}
	.st1{fill:#009062;}
</style>
<g>
	<circle class="st0" cx="16.35" cy="17.09" r="14.62"/>
	<g>
		<g>
			<g>
				<path class="st1" d="M20.89,11.58c-0.56,0-1,0.45-1,1.01c0,0.56,0.45,1.01,1,1.01c0.56,0,1.01-0.45,1.01-1.01
					C21.9,12.03,21.45,11.58,20.89,11.58z"/>
				<path class="st1" d="M16.42,12.87c-2.33,0-4.22,1.89-4.22,4.22c0,2.33,1.89,4.22,4.22,4.22c2.33,0,4.22-1.89,4.22-4.22
					C20.65,14.76,18.75,12.87,16.42,12.87z M16.42,19.79c-1.49,0-2.7-1.21-2.7-2.7c0-1.49,1.21-2.7,2.7-2.7c1.49,0,2.7,1.21,2.7,2.7
					C19.13,18.58,17.91,19.79,16.42,19.79z"/>
				<path class="st1" d="M19.78,25.66h-6.84c-2.84,0-5.15-2.31-5.15-5.15v-6.84c0-2.84,2.31-5.15,5.15-5.15h6.84
					c2.84,0,5.15,2.31,5.15,5.15v6.84C24.92,23.35,22.61,25.66,19.78,25.66z M12.93,10.13c-1.95,0-3.54,1.59-3.54,3.54v6.84
					c0,1.95,1.59,3.54,3.54,3.54h6.84c1.95,0,3.54-1.59,3.54-3.54v-6.84c0-1.95-1.59-3.54-3.54-3.54H12.93z"/>
			</g>
		</g>
	</g>
</g>
</svg>
