<?xml version="1.0" encoding="utf-8"?>
<!-- Generator: Adobe Illustrator 25.0.1, SVG Export Plug-In . SVG Version: 6.00 Build 0)  -->
<svg version="1.1" id="Layer_1" xmlns="http://www.w3.org/2000/svg" xmlns:xlink="http://www.w3.org/1999/xlink" x="0px" y="0px"
	 viewBox="0 0 32.71 34.18" style="enable-background:new 0 0 32.71 34.18;" xml:space="preserve">
<style type="text/css">
	.st0{fill:#FFFFFF;}
	.st1{fill:#009062;}
</style>
<g>
	<g>
		<circle class="st0" cx="16.35" cy="17.09" r="14.62"/>
		<path class="st1" d="M10.22,14.37h2.83v9.1h-2.83V14.37z M11.64,9.85c0.91,0,1.64,0.73,1.64,1.64c0,0.9-0.73,1.64-1.64,1.64
			c-0.91,0-1.64-0.74-1.64-1.64C10,10.58,10.73,9.85,11.64,9.85"/>
	</g>
	<path class="st1" d="M14.83,14.37h2.71v1.24h0.04c0.38-0.72,1.3-1.47,2.68-1.47c2.86,0,3.39,1.88,3.39,4.33v4.99h-2.83v-4.42
		c0-1.06-0.02-2.41-1.47-2.41c-1.47,0-1.7,1.15-1.7,2.34v4.5h-2.83V14.37z"/>
</g>
</svg>
