<?xml version="1.0" encoding="utf-8"?>
<!-- Generator: Adobe Illustrator 25.0.1, SVG Export Plug-In . SVG Version: 6.00 Build 0)  -->
<svg version="1.1" id="Layer_1" xmlns="http://www.w3.org/2000/svg" xmlns:xlink="http://www.w3.org/1999/xlink" x="0px" y="0px"
	 viewBox="0 0 135.49 129.89" style="enable-background:new 0 0 135.49 129.89;" xml:space="preserve">
<style type="text/css">
	.st0{fill:#008F63;}
</style>
<g>
	<path class="st0" d="M116.63,64.94v1.6c-0.06,1.37-1.09,2.52-2.46,2.75l-5.79,0.86c-1.83,0.23-3.38-1.2-3.27-3.04
		c0.06-0.74,0.06-1.43,0.06-2.18c0-0.06,0-0.06,0-0.11c-0.06-20.45-16.97-37.12-37.42-37.12c-11.86,0-22.65,5.61-29.46,14.32
		l4.35,4.35c0.8,0.8,1.03,1.95,0.69,2.98c-0.34,1.03-1.15,1.72-2.23,1.89c0,0-18.39,2.64-18.96,2.69c-0.92,0.46-3.55-0.86-3.27-3.21
		l2.75-18.9c0.11-1.09,0.86-2,1.89-2.29c1.03-0.4,2.18-0.11,2.92,0.69l3.67,3.61c8.94-10.71,22.59-17.78,37.65-17.78
		C94.67,16.06,116.63,38.14,116.63,64.94z"/>
	<path class="st0" d="M116.63,78.58l-2.75,18.9c-0.11,1.09-0.86,2-1.89,2.29c-0.92,0.34-2.18,0.17-2.92-0.69l-3.38-3.38
		c-8.94,10.94-22.7,18.12-37.94,18.12c-26.46,0-48.25-21.39-48.88-47.68c0-0.57,0-1.89,0.06-3.44c0.06-1.37,1.09-2.52,2.46-2.75
		l5.79-0.8c0.86-0.11,1.72,0.17,2.35,0.74c0.63,0.63,0.97,1.49,0.86,2.35c-0.11,1.49-0.06,2.29-0.06,2.69
		c0,20.51,16.92,37.23,37.42,37.23c12.03,0,22.93-5.79,29.69-14.66l-4.58-4.58c-0.8-0.8-1.03-1.95-0.69-2.98
		c0.34-1.03,1.2-1.78,2.29-1.89c1.15-0.17,18.33-2.64,18.9-2.69C115.25,75.08,116.86,76.8,116.63,78.58z"/>
</g>
</svg>
