<?xml version="1.0" encoding="utf-8"?>
<!-- Generator: Adobe Illustrator 25.0.1, SVG Export Plug-In . SVG Version: 6.00 Build 0)  -->
<svg version="1.1" id="Layer_1" xmlns="http://www.w3.org/2000/svg" xmlns:xlink="http://www.w3.org/1999/xlink" x="0px" y="0px"
	 viewBox="0 0 32.71 34.18" style="enable-background:new 0 0 32.71 34.18;" xml:space="preserve">
<style type="text/css">
	.st0{fill:#FFFFFF;}
	.st1{fill:#009062;}
</style>
<g>
	<circle class="st0" cx="16.35" cy="17.09" r="14.62"/>
	<path class="st1" d="M24.18,14.96c0-1.94-1.57-3.51-3.51-3.51h-8.98c-1.94,0-3.51,1.57-3.51,3.51v4.18c0,1.94,1.57,3.51,3.51,3.51
		h8.98c1.94,0,3.51-1.57,3.51-3.51V14.96z M18.9,17.37l-4.03,1.99c-0.16,0.09-0.69-0.03-0.69-0.21v-4.09c0-0.18,0.54-0.3,0.7-0.21
		l3.85,2.1C18.9,17.04,19.06,17.28,18.9,17.37z"/>
</g>
</svg>
